<svg width="30" height="23" viewBox="0 0 30 23" fill="none" xmlns="http://www.w3.org/2000/svg">
<path d="M3.75 2.8125C3.23437 2.8125 2.8125 3.23437 2.8125 3.75V5.04492L12.9199 13.3418C14.1328 14.3379 15.873 14.3379 17.0859 13.3418L27.1875 5.04492V3.75C27.1875 3.23437 26.7656 2.8125 26.25 2.8125H3.75ZM2.8125 8.68359V18.75C2.8125 19.2656 3.23437 19.6875 3.75 19.6875H26.25C26.7656 19.6875 27.1875 19.2656 27.1875 18.75V8.68359L18.8672 15.5156C16.6172 17.3613 13.377 17.3613 11.1328 15.5156L2.8125 8.68359ZM0 3.75C0 1.68164 1.68164 0 3.75 0H26.25C28.3184 0 30 1.68164 30 3.75V18.75C30 20.8184 28.3184 22.5 26.25 22.5H3.75C1.68164 22.5 0 20.8184 0 18.75V3.75Z" fill="white"/>
</svg>
